<svg xmlns="http://www.w3.org/2000/svg" version="1.1" xmlns:xlink="http://www.w3.org/1999/xlink" viewBox="0 0 200 200"><rect width="200" height="200" fill="url('#gradient')"></rect><defs><linearGradient id="gradient" gradientTransform="rotate(45 0.5 0.5)"><stop offset="0%" stop-color="#29394b"></stop><stop offset="100%" stop-color="#6eb9ce"></stop></linearGradient></defs><g><g fill="#afd0d0" transform="matrix(2.6118747343063626,0,0,2.6118747343063626,9.081071623580826,119.34315853962163)" stroke="#726a65" stroke-width="0.2"><path d="M12.24-14.22L12.24-11.57L7.97-11.57L7.97 0L4.54 0L4.54-11.57L0.35-11.57L0.35-14.22L12.24-14.22ZM19.35-10.64L19.29-7.59L18.20-7.67Q16.65-7.67 16.21-6.69L16.21-6.69L16.21 0L12.92 0L12.92-10.57L16.01-10.57L16.11-9.21Q16.94-10.76 18.43-10.76L18.43-10.76Q18.96-10.76 19.35-10.64L19.35-10.64ZM29.42 0L26.13 0Q25.96-0.32 25.82-0.95L25.82-0.95Q24.91 0.20 23.28 0.20L23.28 0.20Q21.79 0.20 20.74-0.71Q19.70-1.61 19.70-2.98L19.70-2.98Q19.70-4.70 20.97-5.58Q22.24-6.46 24.66-6.46L24.66-6.46L25.67-6.46L25.67-7.01Q25.67-8.47 24.41-8.47L24.41-8.47Q23.24-8.47 23.24-7.31L23.24-7.31L19.95-7.31Q19.95-8.85 21.25-9.80Q22.56-10.76 24.58-10.76Q26.60-10.76 27.77-9.78Q28.95-8.79 28.97-7.07L28.97-7.07L28.97-2.39Q28.99-0.94 29.42-0.17L29.42-0.17L29.42 0ZM24.07-2.15L24.07-2.15Q24.69-2.15 25.09-2.41Q25.50-2.68 25.67-3.01L25.67-3.01L25.67-4.70L24.72-4.70Q23.00-4.70 23.00-3.15L23.00-3.15Q23.00-2.71 23.30-2.43Q23.60-2.15 24.07-2.15ZM35.26-2.34L35.26-2.34Q35.96-2.34 36.34-2.72Q36.72-3.10 36.71-3.77L36.71-3.77L39.79-3.77Q39.79-2.03 38.55-0.92Q37.30 0.20 35.34 0.20L35.34 0.20Q33.04 0.20 31.71-1.25Q30.38-2.70 30.38-5.25L30.38-5.25L30.38-5.39Q30.38-6.99 30.97-8.22Q31.56-9.44 32.68-10.10Q33.79-10.76 35.31-10.76L35.31-10.76Q37.37-10.76 38.58-9.62Q39.79-8.48 39.79-6.52L39.79-6.52L36.71-6.52Q36.71-7.34 36.31-7.78Q35.91-8.22 35.23-8.22L35.23-8.22Q33.96-8.22 33.74-6.59L33.74-6.59Q33.67-6.07 33.67-5.17L33.67-5.17Q33.67-3.57 34.05-2.96Q34.43-2.34 35.26-2.34ZM47.73 0L45.43-3.94L44.50-3.01L44.50 0L41.21 0L41.21-15.01L44.50-15.01L44.50-7.04L44.83-7.48L47.31-10.57L51.26-10.57L47.56-6.22L51.50 0L47.73 0ZM57.04 0.20L57.04 0.20Q54.61 0.20 53.11-1.25Q51.60-2.71 51.60-5.03L51.60-5.03L51.60-5.30Q51.60-6.92 52.20-8.16Q52.80-9.40 53.96-10.08Q55.11-10.76 56.69-10.76L56.69-10.76Q58.92-10.76 60.21-9.38Q61.49-8.00 61.49-5.53L61.49-5.53L61.49-4.25L54.95-4.25Q55.13-3.36 55.72-2.85Q56.32-2.34 57.27-2.34L57.27-2.34Q58.83-2.34 59.71-3.44L59.71-3.44L61.21-1.66Q60.60-0.81 59.47-0.31Q58.34 0.20 57.04 0.20ZM56.67-8.22L56.67-8.22Q55.22-8.22 54.95-6.31L54.95-6.31L58.27-6.31L58.27-6.56Q58.29-7.35 57.87-7.79Q57.45-8.22 56.67-8.22ZM69.27-10.64L69.21-7.59L68.13-7.67Q66.57-7.67 66.13-6.69L66.13-6.69L66.13 0L62.84 0L62.84-10.57L65.93-10.57L66.04-9.21Q66.87-10.76 68.35-10.76L68.35-10.76Q68.88-10.76 69.27-10.64L69.27-10.64Z"></path></g></g></svg>